<?xml version="1.0" encoding="iso-8859-1"?>
<!-- Uploaded to: SVG Repo, www.svgrepo.com, Generator: SVG Repo Mixer Tools -->
<svg fill="#000000" height="800px" width="800px" version="1.1" id="Layer_1" xmlns="http://www.w3.org/2000/svg" xmlns:xlink="http://www.w3.org/1999/xlink" 
	 viewBox="0 0 512 512" xml:space="preserve">
<g>
	<g>
		<path d="M242.622,269.097c-8.359-8.405-19.491-13.096-31.345-13.096c-0.042,0-0.083,0-0.123,0
			c-11.809,0-22.918,4.595-31.293,12.925c-8.405,8.36-13.052,19.504-13.084,31.357c-0.032,11.855,4.554,23.012,12.914,31.417
			c8.659,8.707,20.061,13.062,31.466,13.062c11.323,0,22.652-4.296,31.295-12.892C259.802,314.614,259.878,286.447,242.622,269.097z
			 M219.156,308.448c-4.434,4.41-11.631,4.392-16.044-0.044c-2.137-2.148-3.31-5.001-3.301-8.031
			c0.008-3.03,1.196-5.888,3.345-8.025c2.141-2.13,4.981-3.313,8-3.313c0.01,0,0.021,0,0.031,0c3.03,0,5.876,1.208,8.013,3.356
			C223.611,296.827,223.591,304.036,219.156,308.448z"/>
	</g>
</g>
<g>
	<g>
		<path d="M143.148,388.618l-21.367-21.481c-6.433-6.467-16.889-6.495-23.359-0.063c-6.468,6.433-6.496,16.891-0.063,23.359
			l21.366,21.481c3.229,3.245,7.469,4.869,11.712,4.869c4.212,0,8.425-1.601,11.648-4.807
			C149.554,405.544,149.581,395.086,143.148,388.618z"/>
	</g>
</g>
<g>
	<g>
		<path d="M500.215,32.052l-19.15-19.254c-8.145-8.189-19.429-12.512-30.962-11.877c-10.156,0.565-19.692,4.943-26.733,12.154
			c-6.449-6.245-16.734-6.211-23.127,0.148c-3.607,3.589-5.206,8.428-4.803,13.13c-4.7-0.428-9.548,1.144-13.155,4.732
			c-6.468,6.433-6.496,16.892-0.063,23.359l4.441,4.465L369.58,80.397c-2.142,2.695-3.299,5.872-3.53,9.093L255.99,189.987
			l-18.215-4.413c-33.735-8.174-68.524,7.608-84.589,38.381c-15.706,30.082-41.832,53.268-73.567,65.289l-28.835,10.921
			c-0.285,0.108-0.568,0.225-0.847,0.348c-25.432,11.284-43.592,34.36-48.578,61.734c-4.923,27.034,3.706,54.805,23.083,74.288
			l49.573,49.841c15.898,15.984,37.413,24.765,59.571,24.764c4.849,0,9.733-0.421,14.591-1.278
			c27.399-4.837,50.575-22.872,61.995-48.244c0.125-0.279,0.243-0.56,0.352-0.846l11.078-28.774
			c12.192-31.67,35.52-57.671,65.686-73.213c30.859-15.9,46.83-50.599,38.838-84.38l-4.315-18.241l101.082-109.506
			c3.224-0.211,6.412-1.36,9.12-3.488l21.58-16.965l3.647,3.667c3.229,3.245,7.469,4.869,11.712,4.869
			c4.212,0,8.425-1.601,11.648-4.807c3.607-3.588,5.205-8.427,4.803-13.128c0.502,0.046,1.004,0.073,1.507,0.073
			c4.212,0,8.425-1.601,11.648-4.807c6.123-6.092,6.465-15.785,1.024-22.289c7.278-7.004,11.723-16.533,12.343-26.705
			C512.629,51.549,508.359,40.24,500.215,32.052z M272.159,329.42c-37.375,19.257-66.278,51.472-81.385,90.711l-10.901,28.317
			c-6.99,15.189-20.954,25.973-37.439,28.883c-16.418,2.898-33.24-2.428-44.997-14.249l-49.571-49.841
			C36.109,401.42,30.873,384.57,33.86,368.168c3-16.469,13.859-30.374,29.086-37.282l28.376-10.748
			c39.319-14.893,71.689-43.622,91.149-80.893c9.027-17.29,28.575-26.159,47.527-21.565l10.67,2.586l11.046,26.396
			c1.305,3.117,3.454,5.625,6.072,7.367c1.728,2.626,4.223,4.789,7.334,6.11l26.335,11.188l2.527,10.686
			C298.471,300.991,289.498,320.487,272.159,329.42z M294.713,236.819l-13.753-5.843l-5.769-13.785L385.167,116.77l10.56,10.617
			L294.713,236.819z M478.952,61.065c-0.076,1.249-0.546,3.613-2.837,5.414l-52.962,41.637L404.586,89.45l41.923-52.736
			c1.814-2.282,4.179-2.739,5.429-2.808c1.25-0.07,3.651,0.123,5.707,2.189l19.15,19.254
			C478.85,57.414,479.029,59.818,478.952,61.065z"/>
	</g>
</g>
</svg>